<mxfile host="Electron" modified="2023-06-26T14:10:26.702Z" agent="Mozilla/5.0 (X11; Linux x86_64) AppleWebKit/537.36 (KHTML, like Gecko) draw.io/21.5.0 Chrome/112.0.5615.204 Electron/24.5.1 Safari/537.36" etag="RtwYsYGFD4GPd47QBGsp" version="21.5.0" type="device">
  <diagram id="7C1xGLEkhZVZ-dPrB2Q-" name="Page-1">
    <mxGraphModel dx="1185" dy="709" grid="1" gridSize="10" guides="1" tooltips="1" connect="1" arrows="1" fold="1" page="1" pageScale="1" pageWidth="850" pageHeight="1100" math="0" shadow="0">
      <root>
        <mxCell id="0" />
        <mxCell id="1" parent="0" />
        <mxCell id="-Q3AlBVAB8pd4UczHKoV-29" value="has-criteria" style="edgeStyle=orthogonalEdgeStyle;rounded=1;orthogonalLoop=1;jettySize=auto;html=1;labelBackgroundColor=default;" parent="1" source="-Q3AlBVAB8pd4UczHKoV-1" target="-Q3AlBVAB8pd4UczHKoV-26" edge="1">
          <mxGeometry relative="1" as="geometry" />
        </mxCell>
        <mxCell id="-Q3AlBVAB8pd4UczHKoV-1" value="us-single-arm: UserStory" style="rounded=1;whiteSpace=wrap;html=1;" parent="1" vertex="1">
          <mxGeometry x="120" y="200" width="120" height="40" as="geometry" />
        </mxCell>
        <mxCell id="-Q3AlBVAB8pd4UczHKoV-9" value="Template" style="rounded=0;whiteSpace=wrap;html=1;verticalAlign=top;fillColor=none;container=1;collapsible=0;recursiveResize=0;dashed=1;" parent="1" vertex="1">
          <mxGeometry x="290" y="200" width="480" height="300" as="geometry" />
        </mxCell>
        <mxCell id="-Q3AlBVAB8pd4UczHKoV-2" value="scenario-pick: Scenario" style="rounded=1;whiteSpace=wrap;html=1;" parent="-Q3AlBVAB8pd4UczHKoV-9" vertex="1">
          <mxGeometry x="20" y="80" width="100" height="40" as="geometry" />
        </mxCell>
        <mxCell id="-Q3AlBVAB8pd4UczHKoV-3" value="pick-given: GivenClause" style="rounded=1;whiteSpace=wrap;html=1;" parent="-Q3AlBVAB8pd4UczHKoV-9" vertex="1">
          <mxGeometry x="170" y="30" width="90" height="40" as="geometry" />
        </mxCell>
        <mxCell id="-Q3AlBVAB8pd4UczHKoV-6" value="given" style="edgeStyle=orthogonalEdgeStyle;rounded=1;orthogonalLoop=1;jettySize=auto;html=1;labelBackgroundColor=default;" parent="-Q3AlBVAB8pd4UczHKoV-9" source="-Q3AlBVAB8pd4UczHKoV-2" target="-Q3AlBVAB8pd4UczHKoV-3" edge="1">
          <mxGeometry x="0.5556" y="10" relative="1" as="geometry">
            <mxPoint x="170" y="60" as="targetPoint" />
            <Array as="points">
              <mxPoint x="130" y="100" />
              <mxPoint x="130" y="60" />
            </Array>
            <mxPoint as="offset" />
          </mxGeometry>
        </mxCell>
        <mxCell id="-Q3AlBVAB8pd4UczHKoV-4" value="pick-when: WhenClause" style="rounded=1;whiteSpace=wrap;html=1;" parent="-Q3AlBVAB8pd4UczHKoV-9" vertex="1">
          <mxGeometry x="170" y="80" width="90" height="40" as="geometry" />
        </mxCell>
        <mxCell id="-Q3AlBVAB8pd4UczHKoV-7" value="when" style="edgeStyle=orthogonalEdgeStyle;rounded=1;orthogonalLoop=1;jettySize=auto;html=1;labelBackgroundColor=default;" parent="-Q3AlBVAB8pd4UczHKoV-9" source="-Q3AlBVAB8pd4UczHKoV-2" target="-Q3AlBVAB8pd4UczHKoV-4" edge="1">
          <mxGeometry x="0.2" y="10" relative="1" as="geometry">
            <Array as="points">
              <mxPoint x="140" y="100" />
              <mxPoint x="140" y="100" />
            </Array>
            <mxPoint as="offset" />
          </mxGeometry>
        </mxCell>
        <mxCell id="-Q3AlBVAB8pd4UczHKoV-5" value="pick-then: ThenClause" style="rounded=1;whiteSpace=wrap;html=1;" parent="-Q3AlBVAB8pd4UczHKoV-9" vertex="1">
          <mxGeometry x="170" y="130" width="90" height="40" as="geometry" />
        </mxCell>
        <mxCell id="-Q3AlBVAB8pd4UczHKoV-8" value="then" style="edgeStyle=orthogonalEdgeStyle;rounded=1;orthogonalLoop=1;jettySize=auto;html=1;labelBackgroundColor=default;" parent="-Q3AlBVAB8pd4UczHKoV-9" source="-Q3AlBVAB8pd4UczHKoV-2" target="-Q3AlBVAB8pd4UczHKoV-5" edge="1">
          <mxGeometry x="0.6" y="10" relative="1" as="geometry">
            <Array as="points">
              <mxPoint x="130" y="100" />
              <mxPoint x="130" y="150" />
            </Array>
            <mxPoint as="offset" />
          </mxGeometry>
        </mxCell>
        <mxCell id="-Q3AlBVAB8pd4UczHKoV-16" value="ref-agent" style="edgeStyle=orthogonalEdgeStyle;rounded=1;orthogonalLoop=1;jettySize=auto;html=1;" parent="-Q3AlBVAB8pd4UczHKoV-9" source="-Q3AlBVAB8pd4UczHKoV-12" target="-Q3AlBVAB8pd4UczHKoV-13" edge="1">
          <mxGeometry x="0.5385" y="10" relative="1" as="geometry">
            <Array as="points">
              <mxPoint x="320" y="150" />
              <mxPoint x="320" y="210" />
            </Array>
            <mxPoint as="offset" />
          </mxGeometry>
        </mxCell>
        <mxCell id="-Q3AlBVAB8pd4UczHKoV-17" value="clause-of" style="edgeStyle=orthogonalEdgeStyle;rounded=1;orthogonalLoop=1;jettySize=auto;html=1;" parent="-Q3AlBVAB8pd4UczHKoV-9" source="-Q3AlBVAB8pd4UczHKoV-12" target="-Q3AlBVAB8pd4UczHKoV-5" edge="1">
          <mxGeometry y="-10" relative="1" as="geometry">
            <Array as="points" />
            <mxPoint as="offset" />
          </mxGeometry>
        </mxCell>
        <mxCell id="-Q3AlBVAB8pd4UczHKoV-19" value="predicate" style="edgeStyle=orthogonalEdgeStyle;rounded=1;orthogonalLoop=1;jettySize=auto;html=1;labelBackgroundColor=default;" parent="-Q3AlBVAB8pd4UczHKoV-9" source="-Q3AlBVAB8pd4UczHKoV-12" target="-Q3AlBVAB8pd4UczHKoV-18" edge="1">
          <mxGeometry relative="1" as="geometry">
            <Array as="points">
              <mxPoint x="350" y="140" />
              <mxPoint x="350" y="140" />
            </Array>
          </mxGeometry>
        </mxCell>
        <mxCell id="-Q3AlBVAB8pd4UczHKoV-21" value="time-constraint" style="edgeStyle=orthogonalEdgeStyle;rounded=1;orthogonalLoop=1;jettySize=auto;html=1;labelBackgroundColor=default;" parent="-Q3AlBVAB8pd4UczHKoV-9" source="-Q3AlBVAB8pd4UczHKoV-12" target="-Q3AlBVAB8pd4UczHKoV-20" edge="1">
          <mxGeometry x="-0.1429" relative="1" as="geometry">
            <Array as="points" />
            <mxPoint as="offset" />
            <mxPoint x="410" y="170" as="sourcePoint" />
          </mxGeometry>
        </mxCell>
        <mxCell id="-Q3AlBVAB8pd4UczHKoV-12" value="fluent-obj-held-by-robot: FluentClause" style="rounded=1;whiteSpace=wrap;html=1;" parent="-Q3AlBVAB8pd4UczHKoV-9" vertex="1">
          <mxGeometry x="330" y="130" width="140" height="40" as="geometry" />
        </mxCell>
        <mxCell id="-Q3AlBVAB8pd4UczHKoV-14" style="edgeStyle=orthogonalEdgeStyle;rounded=1;orthogonalLoop=1;jettySize=auto;html=1;" parent="-Q3AlBVAB8pd4UczHKoV-9" source="-Q3AlBVAB8pd4UczHKoV-13" target="-Q3AlBVAB8pd4UczHKoV-2" edge="1">
          <mxGeometry relative="1" as="geometry">
            <Array as="points">
              <mxPoint x="205" y="180" />
              <mxPoint x="70" y="180" />
            </Array>
            <mxPoint x="130" y="270.0344827586207" as="sourcePoint" />
            <mxPoint x="70" y="150" as="targetPoint" />
          </mxGeometry>
        </mxCell>
        <mxCell id="-Q3AlBVAB8pd4UczHKoV-13" value="pick-robot: ScenarioVariable" style="rounded=1;whiteSpace=wrap;html=1;" parent="-Q3AlBVAB8pd4UczHKoV-9" vertex="1">
          <mxGeometry x="150" y="190" width="110" height="40" as="geometry" />
        </mxCell>
        <mxCell id="-Q3AlBVAB8pd4UczHKoV-18" value="pred-obj-held-by-robot: IsHeldPredicate" style="rounded=1;whiteSpace=wrap;html=1;" parent="-Q3AlBVAB8pd4UczHKoV-9" vertex="1">
          <mxGeometry x="330" y="40" width="140" height="40" as="geometry" />
        </mxCell>
        <mxCell id="-Q3AlBVAB8pd4UczHKoV-20" value="after-pick: TimeConstraint" style="rounded=1;whiteSpace=wrap;html=1;" parent="-Q3AlBVAB8pd4UczHKoV-9" vertex="1">
          <mxGeometry x="340" y="220" width="120" height="40" as="geometry" />
        </mxCell>
        <mxCell id="-Q3AlBVAB8pd4UczHKoV-10" value="pick-object: ScenarioVariable" style="rounded=1;whiteSpace=wrap;html=1;" parent="-Q3AlBVAB8pd4UczHKoV-9" vertex="1">
          <mxGeometry x="150" y="250" width="110" height="40" as="geometry" />
        </mxCell>
        <mxCell id="-Q3AlBVAB8pd4UczHKoV-15" value="ref-object" style="edgeStyle=orthogonalEdgeStyle;rounded=1;orthogonalLoop=1;jettySize=auto;html=1;" parent="-Q3AlBVAB8pd4UczHKoV-9" source="-Q3AlBVAB8pd4UczHKoV-12" target="-Q3AlBVAB8pd4UczHKoV-10" edge="1">
          <mxGeometry x="0.6842" y="10" relative="1" as="geometry">
            <Array as="points">
              <mxPoint x="320" y="150" />
              <mxPoint x="320" y="270" />
            </Array>
            <mxPoint as="offset" />
          </mxGeometry>
        </mxCell>
        <mxCell id="-Q3AlBVAB8pd4UczHKoV-11" value="of-scenario" style="edgeStyle=orthogonalEdgeStyle;rounded=1;orthogonalLoop=1;jettySize=auto;html=1;labelBackgroundColor=default;" parent="-Q3AlBVAB8pd4UczHKoV-9" source="-Q3AlBVAB8pd4UczHKoV-10" target="-Q3AlBVAB8pd4UczHKoV-2" edge="1">
          <mxGeometry x="0.6121" relative="1" as="geometry">
            <Array as="points">
              <mxPoint x="205" y="240" />
              <mxPoint x="70" y="240" />
            </Array>
            <mxPoint as="offset" />
            <mxPoint x="195" y="250" as="sourcePoint" />
            <mxPoint x="80" y="160" as="targetPoint" />
          </mxGeometry>
        </mxCell>
        <mxCell id="-Q3AlBVAB8pd4UczHKoV-23" value="of-variable" style="edgeStyle=orthogonalEdgeStyle;rounded=1;orthogonalLoop=1;jettySize=auto;html=1;" parent="1" source="-Q3AlBVAB8pd4UczHKoV-22" target="-Q3AlBVAB8pd4UczHKoV-10" edge="1">
          <mxGeometry x="0.2414" y="10" relative="1" as="geometry">
            <Array as="points">
              <mxPoint x="270" y="380" />
              <mxPoint x="270" y="470" />
            </Array>
            <mxPoint as="offset" />
          </mxGeometry>
        </mxCell>
        <mxCell id="-Q3AlBVAB8pd4UczHKoV-25" value="has-variation" style="edgeStyle=orthogonalEdgeStyle;rounded=1;orthogonalLoop=1;jettySize=auto;html=1;labelBackgroundColor=default;" parent="1" source="-Q3AlBVAB8pd4UczHKoV-22" target="-Q3AlBVAB8pd4UczHKoV-24" edge="1">
          <mxGeometry relative="1" as="geometry">
            <mxPoint as="offset" />
          </mxGeometry>
        </mxCell>
        <mxCell id="-Q3AlBVAB8pd4UczHKoV-22" value="robot-connection: VariableConnection" style="rounded=1;whiteSpace=wrap;html=1;" parent="1" vertex="1">
          <mxGeometry x="120" y="360" width="120" height="40" as="geometry" />
        </mxCell>
        <mxCell id="-Q3AlBVAB8pd4UczHKoV-24" value="cylindrical-cell:&lt;br&gt;Object" style="rounded=1;whiteSpace=wrap;html=1;" parent="1" vertex="1">
          <mxGeometry x="120" y="440" width="120" height="40" as="geometry" />
        </mxCell>
        <mxCell id="-Q3AlBVAB8pd4UczHKoV-27" value="has-var-connection" style="edgeStyle=orthogonalEdgeStyle;rounded=1;orthogonalLoop=1;jettySize=auto;html=1;labelBackgroundColor=default;" parent="1" source="-Q3AlBVAB8pd4UczHKoV-26" target="-Q3AlBVAB8pd4UczHKoV-22" edge="1">
          <mxGeometry relative="1" as="geometry">
            <Array as="points">
              <mxPoint x="177.5" y="380" />
              <mxPoint x="177.5" y="380" />
            </Array>
          </mxGeometry>
        </mxCell>
        <mxCell id="-Q3AlBVAB8pd4UczHKoV-28" value="of-scenario" style="edgeStyle=orthogonalEdgeStyle;rounded=1;orthogonalLoop=1;jettySize=auto;html=1;labelBackgroundColor=default;" parent="1" source="-Q3AlBVAB8pd4UczHKoV-26" target="-Q3AlBVAB8pd4UczHKoV-2" edge="1">
          <mxGeometry x="0.04" y="10" relative="1" as="geometry">
            <Array as="points">
              <mxPoint x="350" y="300" />
            </Array>
            <mxPoint as="offset" />
          </mxGeometry>
        </mxCell>
        <mxCell id="-Q3AlBVAB8pd4UczHKoV-26" value="scenario-pickup-avl: ScenarioVariant" style="rounded=1;whiteSpace=wrap;html=1;" parent="1" vertex="1">
          <mxGeometry x="120" y="280" width="120" height="40" as="geometry" />
        </mxCell>
      </root>
    </mxGraphModel>
  </diagram>
</mxfile>
